<?xml version="1.0" standalone="no"?>
<!DOCTYPE svg PUBLIC "-//W3C//DTD SVG 20010904//EN"
 "http://www.w3.org/TR/2001/REC-SVG-20010904/DTD/svg10.dtd">
<svg version="1.0" xmlns="http://www.w3.org/2000/svg"
 width="598.000000pt" height="598.000000pt" viewBox="0 0 598.000000 598.000000"
 preserveAspectRatio="xMidYMid meet">
<metadata>
Created by potrace 1.14, written by Peter Selinger 2001-2017
</metadata>
<g transform="translate(0.000000,598.000000) scale(0.100000,-0.100000)"
fill="#000000" stroke="none">
<path d="M2670 5976 c0 -3 15 -29 33 -58 152 -240 130 -552 -60 -876 -24 -41
-43 -76 -43 -78 0 -15 -274 -399 -314 -440 -6 -6 -22 -26 -36 -44 -14 -18 -29
-38 -35 -44 -5 -6 -64 -74 -130 -151 -133 -156 -372 -431 -395 -455 -8 -9 -44
-49 -80 -90 -36 -40 -69 -78 -75 -84 -49 -55 -97 -109 -130 -150 -22 -27 -47
-56 -55 -65 -9 -9 -43 -47 -75 -86 -33 -38 -62 -72 -65 -75 -3 -3 -41 -45 -83
-94 -205 -236 -345 -513 -393 -776 -4 -19 -9 -44 -11 -55 -9 -36 -11 -306 -3
-343 5 -21 13 -66 20 -102 26 -143 112 -356 205 -510 151 -249 398 -521 680
-746 144 -116 364 -270 496 -349 205 -122 536 -286 576 -286 2 0 16 -4 32 -9
22 -6 33 -4 43 7 39 48 -4 118 -207 338 -119 129 -209 234 -270 315 -27 36
-53 70 -58 75 -61 73 -191 326 -226 441 -82 271 -49 575 85 770 135 196 417
554 529 670 11 11 47 52 80 89 67 77 206 232 230 259 6 6 73 83 149 171 76 88
152 176 169 195 241 279 481 716 504 919 29 256 -62 527 -291 870 -135 202
-275 370 -476 571 -143 143 -320 296 -320 276z"/>
<path d="M3944 4390 c3 -14 14 -63 25 -110 18 -81 30 -155 37 -230 5 -50 5
-261 0 -286 -2 -12 -7 -45 -11 -75 -15 -119 -82 -274 -181 -420 -68 -100 -251
-341 -291 -384 -15 -16 -60 -66 -98 -110 -39 -44 -75 -84 -81 -90 -5 -5 -46
-50 -90 -100 -43 -49 -81 -92 -84 -95 -50 -49 -492 -589 -583 -713 -16 -20
-43 -68 -61 -105 -91 -183 -111 -383 -60 -589 8 -32 17 -69 20 -83 9 -45 103
-231 148 -294 50 -71 132 -150 165 -161 34 -10 44 7 47 77 9 190 120 455 311
748 91 139 288 391 477 610 12 14 68 81 126 150 57 69 107 127 110 130 5 4
140 167 174 210 43 55 184 239 196 256 160 227 242 373 266 474 4 19 8 37 9
40 40 168 38 295 -5 437 -53 175 -158 321 -417 583 -111 112 -152 148 -149
130z"/>
<path d="M4761 3318 c36 -106 41 -137 44 -228 5 -226 -117 -477 -427 -880 -49
-63 -95 -123 -103 -133 -17 -20 -244 -306 -280 -352 -248 -319 -338 -439 -457
-615 -176 -259 -264 -422 -328 -606 -85 -245 -111 -504 -51 -504 4 0 39 30 77
67 202 195 384 332 969 728 220 149 288 196 295 204 3 3 34 30 70 60 225 187
422 430 544 670 49 97 108 251 119 312 25 134 28 163 32 324 4 172 -13 282
-65 413 -42 103 -121 252 -178 332 -43 61 -265 290 -281 290 -4 0 5 -37 20
-82z"/>
</g>
</svg>
