<?xml version="1.0" encoding="UTF-8"?>
<svg width="42px" height="42px" viewBox="0 0 42 42" version="1.1" xmlns="http://www.w3.org/2000/svg" xmlns:xlink="http://www.w3.org/1999/xlink">
    <!-- Generator: Sketch 52.1 (67048) - http://www.bohemiancoding.com/sketch -->
    <title>Group 2</title>
    <desc>Created with Sketch.</desc>
    <g id="Weather" stroke="none" stroke-width="1" fill="none" fill-rule="evenodd">
        <g id="Group-2" transform="translate(-4.000000, -4.000000)">
            <rect id="Rectangle" x="0" y="0" width="50" height="50"></rect>
            <g id="Group" transform="translate(5.000000, 5.000000)" stroke="#FFC900" stroke-linecap="round" stroke-linejoin="round" stroke-width="2">
                <path d="M30.9090909,26.6127273 C20.8672727,26.6127273 12.7272727,18.4727273 12.7272727,8.43090909 C12.7272727,6.76909091 12.9690909,5.16545455 13.3872727,3.63636364 C5.67636364,5.74181818 -2.84217094e-14,12.7781818 -2.84217094e-14,21.1581818 C-2.84217094e-14,31.2 8.14,39.34 18.1818182,39.34 C26.5618182,39.34 33.5963636,33.6636364 35.7036364,25.9527273 C34.1745455,26.3709091 32.5709091,26.6127273 30.9090909,26.6127273 L30.9090909,26.6127273 Z" id="Stroke-5991"></path>
                <path d="M25.4545455,0 L25.4545455,7.27272727" id="Stroke-6141"></path>
                <path d="M21.8181818,3.63636364 L29.0909091,3.63636364" id="Stroke-6143"></path>
                <path d="M36.3636364,10.9090909 L36.3636364,18.1818182" id="Stroke-6145"></path>
                <path d="M32.7272727,14.5454545 L40,14.5454545" id="Stroke-6147"></path>
            </g>
        </g>
    </g>
</svg>